<svg width="38" height="38" viewBox="0 0 38 38" fill="none" xmlns="http://www.w3.org/2000/svg">
<path fill-rule="evenodd" clip-rule="evenodd" d="M28.6709 2.89074C28.8581 2.38431 28.8364 1.82427 28.6107 1.33382C28.3849 0.843376 27.9736 0.462696 27.4671 0.275529C26.9607 0.0883619 26.4007 0.11004 25.9102 0.335793C25.4198 0.561547 25.0391 0.972884 24.8519 1.47931C23.6202 4.81194 23.6958 8.48733 25.0636 11.7665C25.7091 13.3041 25.9679 14.9793 25.8175 16.6401C25.667 18.301 25.1118 19.8997 24.2005 21.2963L16.6602 13.756C17.7704 13.0395 19.0108 12.5346 20.3191 12.2822C20.5816 12.2312 20.8315 12.129 21.0545 11.9815C21.2776 11.8339 21.4694 11.6439 21.6189 11.4222C21.7685 11.2005 21.873 10.9516 21.9264 10.6895C21.9797 10.4275 21.981 10.1575 21.93 9.89496C21.879 9.63244 21.7768 9.38252 21.6293 9.15949C21.4817 8.93646 21.2917 8.74467 21.07 8.59508C20.8483 8.4455 20.5994 8.34103 20.3373 8.28766C20.0753 8.23429 19.8053 8.23306 19.5428 8.28403C16.7391 8.82441 14.1596 10.1869 12.1328 12.198L12.1165 12.2143C10.5845 13.7668 9.42779 15.649 8.73483 17.717C8.04186 19.7851 7.831 21.9843 8.11835 24.1463C5.88575 23.8369 3.61136 24.0773 1.49278 24.8466C1.2325 24.9303 0.991741 25.0655 0.784865 25.2443C0.57799 25.423 0.40924 25.6416 0.288682 25.887C0.168125 26.1324 0.0982304 26.3995 0.0831694 26.6725C0.0681085 26.9455 0.10819 27.2187 0.201021 27.4759C0.293853 27.733 0.437533 27.9688 0.623489 28.1693C0.809445 28.3697 1.03387 28.5306 1.28336 28.6424C1.53286 28.7542 1.80232 28.8146 2.07567 28.82C2.34901 28.8253 2.62064 28.7756 2.87435 28.6737C4.98502 27.9112 7.29275 27.8921 9.41578 28.6195C10.1076 30.7394 10.0742 33.0294 9.32078 35.1283C9.1535 35.633 9.19028 36.183 9.42327 36.6609C9.65625 37.1388 10.067 37.5066 10.5676 37.6856C11.0682 37.8647 11.6189 37.8408 12.1022 37.619C12.5854 37.3973 12.9627 36.9953 13.1534 36.499C14.3549 33.1514 14.2483 29.4735 12.8548 26.201C12.2086 24.6521 11.9532 22.968 12.1113 21.2971C12.2694 19.6262 12.8361 18.0199 13.7614 16.6196L21.3261 24.1816C20.1942 24.9307 18.9185 25.4573 17.5722 25.7206C17.0511 25.8327 16.5947 26.1448 16.3012 26.5898C16.0077 27.0348 15.9004 27.5771 16.0024 28.1003C16.1044 28.6235 16.4076 29.0859 16.8468 29.388C17.2859 29.6901 17.8261 29.8079 18.3512 29.716C21.1664 29.1677 23.755 27.7949 25.7884 25.7722L25.7992 25.7613C27.3312 24.2132 28.4888 22.335 29.1832 20.2706C29.8776 18.2063 30.0904 16.0104 29.8055 13.851C32.0421 14.1605 34.3384 13.9325 36.4989 13.1562C37.0072 12.9737 37.4221 12.5968 37.6524 12.1084C37.8827 11.62 37.9096 11.06 37.7271 10.5518C37.5447 10.0436 37.1677 9.62866 36.6793 9.39833C36.1909 9.16799 35.631 9.14111 35.1228 9.3236C32.9905 10.0906 30.6608 10.1097 28.5162 9.37789C27.8435 7.25885 27.8997 4.97595 28.6709 2.89074Z" fill="#20CEBA"/>
</svg>
